<?xml version="1.0" encoding="UTF-8" standalone="no"?><!-- Generator: Gravit.io --><svg xmlns="http://www.w3.org/2000/svg" xmlns:xlink="http://www.w3.org/1999/xlink" style="isolation:isolate" viewBox="0 0 331.644 40.825" width="331.644pt" height="40.825pt"><defs><clipPath id="_clipPath_bNHE5ZqNcpO3xw6eRz34OshIJV0dewI0"><rect width="331.644" height="40.825"/></clipPath></defs><g clip-path="url(#_clipPath_bNHE5ZqNcpO3xw6eRz34OshIJV0dewI0)"><path d=" M 77.292 15.094 L 49.249 15.094 L 48.21 15.871 L 48.21 40.818 L 55.973 40.818 L 55.973 31.463 L 56.714 30.799 L 77.293 30.799 C 82.489 30.799 84.925 29.401 84.925 25.814 L 84.925 20.086 C 84.924 16.493 82.489 15.094 77.292 15.094 Z  M 77.292 24.317 C 77.292 26.007 76.174 26.358 73.738 26.358 L 56.799 26.358 L 55.972 25.554 L 55.972 20.21 L 56.713 19.532 L 73.738 19.532 C 76.174 19.532 77.292 19.879 77.292 21.577 L 77.292 24.317 Z " fill="rgb(255,255,255)"/><path d=" M 99.081 19.813 L 105.761 29.6 L 105.391 30.548 L 90.618 30.548 L 86.847 35.187 L 108.837 35.187 L 110.361 36.115 L 113.775 40.824 L 122.659 40.824 L 103.186 14.775" fill="rgb(255,255,255)"/><path d=" M 187.418 35.757 L 187.418 28.833 L 188.217 28.143 L 203.079 28.143 L 203.079 23.734 L 179.524 23.734 L 179.524 40.823 L 214.27 40.823 L 214.27 36.435 L 188.252 36.435" fill="rgb(255,255,255)"/><rect x="179.524" y="15.094" width="35.113" height="4.848" transform="matrix(1,0,0,1,0,0)" fill="rgb(255,255,255)"/><path d=" M 140.361 19.685 L 168.649 19.685 C 168.213 16.088 165.981 15.09 160.319 15.09 L 140.06 15.09 C 133.671 15.09 131.633 16.337 131.633 21.172 L 131.633 34.737 C 131.633 39.577 133.671 40.824 140.06 40.824 L 160.319 40.824 C 166.064 40.824 168.264 39.745 168.414 36.014 L 140.361 36.014 L 139.529 35.231 L 139.529 20.209" fill="rgb(255,255,255)"/><path d=" M 29.333 25.118 L 8.754 25.118 L 8.148 24.451 L 8.148 20.049 L 8.751 19.583 L 36.493 19.583 L 36.872 18.656 C 35.927 16.225 33.48 15.091 28.936 15.091 L 9.665 15.091 C 3.28 15.091 1.239 16.338 1.239 21.173 L 1.239 24.017 C 1.239 28.858 3.28 30.103 9.665 30.103 L 30.198 30.103 L 30.843 30.669 L 30.843 35.271 L 30.317 35.989 L 6.83 35.989 L 6.83 35.967 L 0.678 35.967 C 0.678 35.967 -0.026 36.32 0.001 36.485 C 0.526 39.867 2.83 40.825 8.346 40.825 L 29.333 40.825 C 35.717 40.825 37.819 39.578 37.819 34.738 L 37.819 31.195 C 37.819 26.363 35.717 25.118 29.333 25.118 Z " fill="rgb(255,255,255)"/><path d=" M 236.725 14.988 L 225.174 14.988 L 224.547 16.181 L 237.375 25.532 C 239.805 24.125 242.449 22.699 245.325 21.292" fill="rgb(255,255,255)"/><path d=" M 247.075 32.603 L 258.35 40.825 L 270.042 40.825 L 270.526 39.736 L 253.69 27.413 C 251.454 29.054 249.245 30.787 247.075 32.603 Z " fill="rgb(255,255,255)"/><path d=" M 235.006 40.806 L 224.555 40.806 L 223.672 39.423 C 230.778 32.562 262.56 3.151 331.644 0 C 331.644 0 273.658 1.956 235.006 40.806 Z " fill="rgb(255,255,255)"/></g></svg>